# xmcd
#
# Track frame offsets:
# 150
# 20666
# 38870
# 56733
# 76158
# 97064
# 123458
# 141037
# 165328
# 185538
# 211963
# 232522
# 255328
# 275491
# 299890
#
# Disc length: 4291 seconds
#
#
# Revision: 1
# Processed by: cddbd v1.5.1PL2 Copyright (c) Steve Scherf et al.
# Submitted via: FreeRIP 2.943 
#
DISCID=d210c10f
DTITLE=Dixie Chicks - Taking the Long Way
DYEAR=2006
DGENRE=Country
TTITLE0=Dixie Chicks - The Long Way Around
TTITLE1=Dixie Chicks - Easy Silence
TTITLE2=Dixie Chicks - Not Ready to Make Nice
TTITLE3=Dixie Chicks - Everybody Knows
TTITLE4=Dixie Chicks - Bitter End
TTITLE5=Dixie Chicks - Lullaby
TTITLE6=Dixie Chicks - Lubbock or Leave It
TTITLE7=Dixie Chicks - Silent House
TTITLE8=Dixie Chicks - Favorite Year
TTITLE9=Dixie Chicks - Voice Inside My Head
TTITLE10=Dixie Chicks - I Like It
TTITLE11=Dixie Chicks - Baby Hold On
TTITLE12=Dixie Chicks - So Hard
TTITLE13=Dixie Chicks - I Hope
TTITLE14=Dixie Chicks - Dixie Chicks Interview
EXTD=
EXTT0=
EXTT1=
EXTT2=
EXTT3=
EXTT4=
EXTT5=
EXTT6=
EXTT7=
EXTT8=
EXTT9=
EXTT10=
EXTT11=
EXTT12=
EXTT13=
EXTT14=
PLAYORDER=
